<?xml version="1.0" encoding="UTF-8"?>
<svg width="683px" height="672px" viewBox="0 0 683 672" version="1.1" xmlns="http://www.w3.org/2000/svg" xmlns:xlink="http://www.w3.org/1999/xlink">
    <title>Artboard</title>
    <defs>
        <filter id="filter-1">
            <feColorMatrix in="SourceGraphic" type="matrix" values="0 0 0 0 1.000000 0 0 0 0 1.000000 0 0 0 0 1.000000 0 0 0 1.000000 0"></feColorMatrix>
        </filter>
    </defs>
    <g id="Artboard" stroke="none" stroke-width="1" fill="none" fill-rule="evenodd">
        <g filter="url(#filter-1)" id="github-1">
            <g>
                <path d="M341.079914,0 C152.629633,0 0,152.629633 0,341.079914 C0,501.372959 109.987387,634.408639 258.37892,671.912916 C256.666263,667.645788 255.824449,661.666004 255.824449,655.715248 L255.824449,597.717149 L213.182203,597.717149 C190.162937,597.717149 168.8273,587.499266 159.451231,568.718099 C148.362505,548.253305 146.649849,516.699784 118.521641,497.076803 C109.987387,490.255205 116.808985,483.433607 126.185054,484.275421 C144.095378,489.384363 158.580389,501.343931 172.223585,519.225227 C185.866782,537.135551 191.846566,541.402678 217.420302,541.402678 C229.350842,541.402678 248.102981,540.560864 265.17149,537.977365 C274.547559,514.087257 290.745227,492.780648 310.368207,482.562765 C196.113693,468.919568 141.540907,412.634125 141.540907,335.883888 C141.540907,302.617711 156.025918,271.06419 179.916026,243.777797 C172.252613,217.333218 162.005702,162.760432 183.341339,141.453823 C234.51784,141.453823 265.200518,174.72 272.863931,183.225227 C298.437667,174.690972 326.594903,169.58203 355.564924,169.58203 C385.405788,169.58203 412.692181,174.690972 438.265918,183.225227 C445.92933,174.690972 476.641037,141.453823 527.78851,141.453823 C548.253305,161.918618 538.877235,217.333218 530.342981,243.777797 C554.233089,270.222376 567.876285,302.617711 567.876285,335.883888 C567.876285,412.634125 514.145313,468.919568 400.761641,480.850108 C432.315162,497.047775 454.492613,543.086307 454.492613,577.194298 L454.492613,654.873434 C454.492613,657.427905 453.650799,659.982376 453.650799,662.536847 C586.657451,616.498315 682.159827,490.313261 682.159827,341.079914 C682.159827,152.629633 529.530194,0 341.079914,0 L341.079914,0 Z" id="Path" fill="#252736" fill-rule="nonzero"></path>
            </g>
        </g>
    </g>
</svg>