<?xml version="1.0" encoding="UTF-8"?>
<svg width="976px" height="978px" viewBox="0 0 976 978" version="1.1" xmlns="http://www.w3.org/2000/svg" xmlns:xlink="http://www.w3.org/1999/xlink">
    <title>Artboard</title>
    <defs>
        <circle id="path-1" cx="487.938174" cy="488.931427" r="488.431427"></circle>
    </defs>
    <g id="Artboard" stroke="none" stroke-width="1" fill="none" fill-rule="evenodd">
        <mask id="mask-2" fill="white">
            <use xlink:href="#path-1"></use>
        </mask>
        <use id="Oval" fill="#008CA0" fill-rule="nonzero" xlink:href="#path-1"></use>
        <g id="Group" mask="url(#mask-2)" fill-rule="nonzero">
            <g transform="translate(211.274146, 273.601198)">
                <path d="M510.576163,515.962585 C479.091884,456.361077 276.664028,418.959157 276.664028,418.959157 C276.664028,418.959157 74.2361717,456.361077 42.7518924,515.962585 C19.4794366,598.674607 0.0126244023,703.768403 0.0126244023,703.768403 L276.664028,703.768403 L553.315431,703.768403 C553.315431,703.768403 540.164368,591.083563 510.576163,515.962585 Z" id="Path" fill="#F1C9A5"></path>
                <path d="M276.664028,418.959157 C276.664028,418.959157 479.091884,456.361077 510.576163,515.962585 C540.171116,591.083563 553.315431,703.768403 553.315431,703.768403 L276.664028,703.768403 L276.664028,418.959157 Z" id="Path" fill="#E4B692"></path>
                <rect id="Rectangle" fill="#F1C9A5" x="221.556418" y="297.785842" width="110.21522" height="184.452263"></rect>
                <rect id="Rectangle" fill="#E4B692" x="276.664028" y="297.785842" width="55.1076101" height="184.452263"></rect>
                <path d="M221.556418,383.25763 C231.468635,411.712239 271.46838,428.021177 300.847409,428.021177 C311.474872,428.021177 321.812187,426.239812 331.771638,422.980723 L331.771638,297.785842 L221.556418,297.785842 L221.556418,383.25763 Z" id="Path" fill="#DDAC8C" opacity="0.1"></path>
                <path d="M418.363527,181.396572 C418.363527,66.1881316 354.922637,0.675729763 276.664028,0.675729763 C198.405419,0.675729763 134.964529,66.1881316 134.964529,181.396572 C134.964529,336.361844 198.405419,390.011973 276.664028,390.011973 C354.91589,390.011973 418.363527,329.904395 418.363527,181.396572 Z" id="Path" fill="#F1C9A5"></path>
                <path d="M396.791465,261.288099 C371.10337,258.595809 353.762051,230.923921 358.11425,199.507118 C362.412468,168.063324 386.737549,144.716645 412.439139,147.388692 C438.113738,150.06074 455.428068,177.72588 451.096112,209.169674 C446.784398,240.620215 422.47956,263.946652 396.791465,261.288099 Z" id="Path" fill="#E4B692"></path>
                <path d="M103.237336,209.176422 C98.8986322,177.732628 116.219709,150.067488 141.880814,147.39544 C167.595899,144.716645 191.92098,168.063324 196.232693,199.513865 C200.564649,230.930669 183.209834,258.609304 157.541982,261.294847 C131.84714,263.946652 107.542302,240.620215 103.237336,209.176422 Z" id="Path" fill="#F1C9A5"></path>
                <path d="M418.363527,181.396572 C418.363527,66.1881316 354.922637,0.675729763 276.664028,0.675729763 L276.664028,390.011973 C354.91589,390.011973 418.363527,329.904395 418.363527,181.396572 Z" id="Path" fill="#E4B692"></path>
            </g>
        </g>
        <path d="M721.85031,789.563784 C703.456365,754.759687 626.830674,727.546636 566.217026,710.913814 L487.938174,800.386926 L409.659322,710.913814 C349.045675,727.546636 272.413236,754.759687 254.026039,789.563784 C230.753583,872.275806 211.286771,977.369601 211.286771,977.369601 L487.938174,977.369601 L764.589578,977.369601 C764.589578,977.369601 751.438515,864.684761 721.85031,789.563784 Z" id="Path" fill="#022124" fill-rule="nonzero" mask="url(#mask-2)"></path>
        <path d="M369.038799,510.145866 C369.038799,510.145866 469.139374,441.833212 480.920675,404.15464 C479.739846,438.30422 480.920675,468.924807 480.920675,468.924807 C480.920675,468.924807 578.673087,372.359972 569.246697,293.453594 C458.54565,234.560583 372.574539,302.873236 352.547676,334.667905 C332.520814,366.462574 327.810992,454.795343 369.038799,510.145866 Z" id="Path" fill="#D9B380" fill-rule="nonzero" mask="url(#mask-2)"></path>
        <path d="M555.110485,325.241515 C555.110485,325.241515 601.048113,380.605533 610.467756,491.30658 C643.443253,443.014041 678.773662,302.866489 569.246697,293.453594 C559.820306,311.11205 555.110485,325.241515 555.110485,325.241515 Z" id="Path" fill="#D9B380" fill-rule="nonzero" mask="url(#mask-2)"></path>
        <path d="M589.138607,819.199222 L527.890685,762.269761 L487.83696,800.380179 L554.401987,705.347048 C554.401987,705.347048 576.109001,707.749192 583.82825,731.392765 C586.243889,768.551772 589.138607,819.199222 589.138607,819.199222 Z" id="Path" fill="#FFFFFF" fill-rule="nonzero" mask="url(#mask-2)"></path>
        <polygon id="Path" fill="#022124" fill-rule="nonzero" mask="url(#mask-2)" points="466.291889 977.369601 487.938174 977.369601 487.938174 800.386926 466.291889 779.880984"></polygon>
        <path d="M386.535313,819.199222 L447.783235,762.269761 L487.83696,800.380179 L421.271934,705.347048 C421.271934,705.347048 399.56492,707.749192 391.845671,731.392765 C389.430032,768.551772 386.535313,819.199222 386.535313,819.199222 Z" id="Path" fill="#FFFFFF" fill-rule="nonzero" mask="url(#mask-2)"></path>
    </g>
</svg>