<?xml version="1.0" encoding="UTF-8"?>
<svg width="683px" height="683px" viewBox="0 0 683 683" version="1.1" xmlns="http://www.w3.org/2000/svg" xmlns:xlink="http://www.w3.org/1999/xlink">
    <title>Artboard</title>
    <g id="Artboard" stroke="none" stroke-width="1" fill="none" fill-rule="evenodd">
        <path d="M540.708333,0 L142.291667,0 C63.7182083,0 0,63.7182083 0,142.291667 L0,540.708333 C0,619.281792 63.7182083,683 142.291667,683 L540.708333,683 C619.31025,683 683,619.281792 683,540.708333 L683,142.291667 C683,63.7182083 619.31025,0 540.708333,0 Z M227.666667,540.708333 L142.291667,540.708333 L142.291667,227.666667 L227.666667,227.666667 L227.666667,540.708333 Z M184.979167,191.5815 C157.488417,191.5815 135.177083,169.099417 135.177083,141.381 C135.177083,113.662583 157.488417,91.1805 184.979167,91.1805 C212.469917,91.1805 234.78125,113.662583 234.78125,141.381 C234.78125,169.099417 212.498375,191.5815 184.979167,191.5815 Z M569.166667,540.708333 L483.791667,540.708333 L483.791667,381.227833 C483.791667,285.380167 369.958333,292.637042 369.958333,381.227833 L369.958333,540.708333 L284.583333,540.708333 L284.583333,227.666667 L369.958333,227.666667 L369.958333,277.895625 C409.686167,204.302375 569.166667,198.866833 569.166667,348.358458 L569.166667,540.708333 Z" id="Shape" fill="#FFFFFF" fill-rule="nonzero"></path>
    </g>
</svg>