<?xml version="1.0" encoding="UTF-8"?>
<svg width="500px" height="296px" viewBox="0 0 500 296" version="1.1" xmlns="http://www.w3.org/2000/svg" xmlns:xlink="http://www.w3.org/1999/xlink">
    <title>Rectangle</title>
    <g id="GRM-Logo" stroke="none" stroke-width="1" fill="none" fill-rule="evenodd">
        <g id="Artboard" transform="translate(-260.000000, -320.000000)" fill="#008CA0">
            <path d="M370.875,524.17 L466.565719,524.17 L466.565719,484.571557 L396.438132,484.571557 L463.638306,425.776227 C465.521202,424.128828 467.95322,423.247058 470.454394,423.304938 L527.320222,424.620872 C530.515529,424.694815 533.482989,426.291687 535.304965,428.917684 L578.546663,491.241524 L578.546663,491.241524 L676.067258,320.704667 L759.291817,615.843215 L688.768863,577.506405 C686.412405,576.225417 684.669309,574.051508 683.931098,571.472969 L657.126134,477.844421 L657.126134,477.844421 L578.546663,615.843215 L530.763333,533.64403 L530.763333,595.048333 C458.423309,595.048333 405.127198,595.048333 370.875,595.048333 C337.358246,589.751462 260.075742,561.795379 260.075742,454.988079 C260.075742,377.329851 297.008828,332.568713 370.875,320.704667 L449.853309,320.704667 L597.89703,320.704667 L556.59129,387.782025 C554.770983,390.738064 551.547812,392.538531 548.076258,392.538531 L370.875,392.538531 C340.03239,404.99356 324.611085,425.810076 324.611085,454.988079 C324.611085,490.641305 340.03239,513.701945 370.875,524.17 Z" id="Rectangle"></path>
        </g>
    </g>
</svg>